<svg xmlns="http://www.w3.org/2000/svg" width="16" height="16" viewBox="0 0 16 16">
    <g fill="#FFF" fill-rule="evenodd">
        <path d="M7.04 8.32c0 .706.574 1.28 1.28 1.28.706 0 1.28-.574 1.28-1.28 0-.706-.574-1.28-1.28-1.28-.706 0-1.28.574-1.28 1.28"/>
        <path d="M8 11.281A3.285 3.285 0 0 0 11.281 8 3.285 3.285 0 0 0 8 4.719 3.285 3.285 0 0 0 4.719 8 3.285 3.285 0 0 0 8 11.281M.32 6.618l1.93-.633c.073-.212.16-.421.26-.626l-.895-1.79a.469.469 0 0 1 .088-.54l1.325-1.327a.468.468 0 0 1 .541-.087l1.79.895c.205-.1.414-.187.626-.26L6.618.32A.468.468 0 0 1 7.062 0h1.875c.202 0 .381.13.445.32l.633 1.93c.212.073.421.16.626.26l1.79-.895a.467.467 0 0 1 .54.087l1.327 1.326c.142.143.178.361.087.541l-.895 1.79c.1.205.187.414.26.626l1.93.633c.19.064.32.243.32.444v1.875c0 .202-.13.381-.32.445l-1.93.633a5.972 5.972 0 0 1-.26.626l.895 1.79c.09.18.055.398-.087.54l-1.326 1.326a.468.468 0 0 1-.541.088l-1.79-.895c-.205.1-.414.187-.626.26l-.633 1.93a.468.468 0 0 1-.444.32H7.062a.468.468 0 0 1-.444-.32l-.633-1.93a5.906 5.906 0 0 1-.626-.26l-1.79.895a.471.471 0 0 1-.54-.088l-1.326-1.325a.469.469 0 0 1-.088-.541l.895-1.79a5.906 5.906 0 0 1-.26-.626L.32 9.382A.468.468 0 0 1 0 8.938V7.062c0-.201.13-.38.32-.444"/>
    </g>
</svg>
